<svg width="197" height="196" viewBox="0 0 197 196" fill="none" xmlns="http://www.w3.org/2000/svg">
<rect x="0.5" y="0.5" width="196" height="195" rx="19.5" stroke="#8B8B8B"/>
<path d="M30.7705 97.6104V99.4795H20.0498V97.6104H30.7705ZM26.4092 93.0449V104.432H24.4219V93.0449H26.4092ZM38.4834 88.8447L38.9023 90.0693C38.0501 90.3343 37.4629 90.8105 37.1406 91.498C36.8184 92.1784 36.6572 92.959 36.6572 93.8398V96.0635C36.6572 96.7796 36.5104 97.4313 36.2168 98.0186C35.9303 98.5986 35.472 99.0605 34.8418 99.4043C34.2188 99.748 33.3988 99.9199 32.3818 99.9199V98.6094C33.1911 98.6094 33.7712 98.3802 34.1221 97.9219C34.4801 97.4635 34.6592 96.8441 34.6592 96.0635V93.8398C34.6592 93.0879 34.7738 92.3861 35.0029 91.7344C35.2393 91.0755 35.6331 90.499 36.1846 90.0049C36.7432 89.5036 37.5094 89.1169 38.4834 88.8447ZM38.9023 108.696L38.4834 109.932C37.5094 109.652 36.7432 109.266 36.1846 108.771C35.6331 108.277 35.2393 107.701 35.0029 107.042C34.7738 106.39 34.6592 105.688 34.6592 104.937V102.724C34.6592 102.201 34.5804 101.75 34.4229 101.37C34.2653 100.991 34.0182 100.697 33.6816 100.489C33.3522 100.274 32.9189 100.167 32.3818 100.167V98.8564C33.3988 98.8564 34.2188 99.0283 34.8418 99.3721C35.472 99.7158 35.9303 100.181 36.2168 100.769C36.5104 101.349 36.6572 102 36.6572 102.724V104.937C36.6572 105.524 36.7253 106.068 36.8613 106.569C37.0046 107.071 37.2373 107.504 37.5596 107.869C37.889 108.242 38.3366 108.517 38.9023 108.696ZM42.6514 96.8584V106H40.6641V94.377H42.5439L42.6514 96.8584ZM42.1787 99.748L41.3516 99.7158C41.3587 98.9209 41.4769 98.1868 41.7061 97.5137C41.9352 96.8333 42.2575 96.2425 42.6729 95.7412C43.0882 95.2399 43.5824 94.8532 44.1553 94.5811C44.7354 94.3018 45.3763 94.1621 46.0781 94.1621C46.651 94.1621 47.1667 94.2409 47.625 94.3984C48.0833 94.5488 48.4736 94.7923 48.7959 95.1289C49.1253 95.4655 49.376 95.9023 49.5479 96.4395C49.7197 96.9694 49.8057 97.6175 49.8057 98.3838V106H47.8076V98.3623C47.8076 97.7536 47.7181 97.2666 47.5391 96.9014C47.36 96.529 47.0986 96.2604 46.7549 96.0957C46.4111 95.9238 45.9886 95.8379 45.4873 95.8379C44.9932 95.8379 44.542 95.9417 44.1338 96.1494C43.7327 96.3571 43.3854 96.6436 43.0918 97.0088C42.8053 97.374 42.5798 97.793 42.415 98.2656C42.2575 98.7311 42.1787 99.2253 42.1787 99.748ZM59.9355 103.314V94.377H61.9336V106H60.0322L59.9355 103.314ZM60.3115 100.865L61.1387 100.844C61.1387 101.617 61.0563 102.333 60.8916 102.992C60.734 103.644 60.4762 104.21 60.1182 104.689C59.7601 105.169 59.291 105.545 58.7109 105.817C58.1309 106.082 57.4255 106.215 56.5947 106.215C56.029 106.215 55.5098 106.132 55.0371 105.968C54.5716 105.803 54.1706 105.549 53.834 105.205C53.4974 104.861 53.236 104.414 53.0498 103.862C52.8708 103.311 52.7812 102.648 52.7812 101.875V94.377H54.7686V101.896C54.7686 102.419 54.8258 102.853 54.9404 103.196C55.0622 103.533 55.2233 103.801 55.4238 104.002C55.6315 104.195 55.8607 104.331 56.1113 104.41C56.3691 104.489 56.6341 104.528 56.9062 104.528C57.7513 104.528 58.4209 104.367 58.915 104.045C59.4092 103.715 59.7637 103.275 59.9785 102.724C60.2005 102.165 60.3115 101.546 60.3115 100.865ZM66.9395 96.6865V106H64.9414V94.377H66.832L66.9395 96.6865ZM66.5312 99.748L65.6074 99.7158C65.6146 98.9209 65.7184 98.1868 65.9189 97.5137C66.1195 96.8333 66.4167 96.2425 66.8105 95.7412C67.2044 95.2399 67.695 94.8532 68.2822 94.5811C68.8695 94.3018 69.5498 94.1621 70.3232 94.1621C70.8675 94.1621 71.3688 94.2409 71.8271 94.3984C72.2855 94.5488 72.6829 94.7887 73.0195 95.1182C73.3561 95.4476 73.6175 95.8701 73.8037 96.3857C73.9899 96.9014 74.083 97.5244 74.083 98.2549V106H72.0957V98.3516C72.0957 97.7428 71.9919 97.2559 71.7842 96.8906C71.5837 96.5254 71.2972 96.2604 70.9248 96.0957C70.5524 95.9238 70.1156 95.8379 69.6143 95.8379C69.027 95.8379 68.5365 95.9417 68.1426 96.1494C67.7487 96.3571 67.4336 96.6436 67.1973 97.0088C66.9609 97.374 66.7891 97.793 66.6816 98.2656C66.5814 98.7311 66.5312 99.2253 66.5312 99.748ZM74.0615 98.6523L72.7295 99.0605C72.7367 98.4232 72.8405 97.8109 73.041 97.2236C73.2487 96.6364 73.5459 96.1136 73.9326 95.6553C74.3265 95.1969 74.8099 94.8353 75.3828 94.5703C75.9557 94.2982 76.611 94.1621 77.3486 94.1621C77.9717 94.1621 78.5231 94.2445 79.0029 94.4092C79.4899 94.5739 79.8981 94.8281 80.2275 95.1719C80.5641 95.5085 80.8184 95.9417 80.9902 96.4717C81.1621 97.0016 81.248 97.6318 81.248 98.3623V106H79.25V98.3408C79.25 97.6891 79.1462 97.1842 78.9385 96.8262C78.738 96.4609 78.4515 96.2067 78.0791 96.0635C77.7139 95.9131 77.277 95.8379 76.7686 95.8379C76.3317 95.8379 75.945 95.9131 75.6084 96.0635C75.2718 96.2139 74.9889 96.4215 74.7598 96.6865C74.5306 96.9443 74.3551 97.2415 74.2334 97.5781C74.1188 97.9147 74.0615 98.2728 74.0615 98.6523ZM84.2451 89.5H86.2432V103.744L86.0713 106H84.2451V89.5ZM94.0957 100.092V100.317C94.0957 101.162 93.9954 101.947 93.7949 102.67C93.5944 103.386 93.3008 104.009 92.9141 104.539C92.5273 105.069 92.0547 105.481 91.4961 105.774C90.9375 106.068 90.2965 106.215 89.5732 106.215C88.8356 106.215 88.1875 106.09 87.6289 105.839C87.0775 105.581 86.612 105.212 86.2324 104.732C85.8529 104.253 85.5485 103.673 85.3193 102.992C85.0973 102.312 84.9434 101.546 84.8574 100.693V99.7051C84.9434 98.8457 85.0973 98.0758 85.3193 97.3955C85.5485 96.7152 85.8529 96.1351 86.2324 95.6553C86.612 95.1683 87.0775 94.7995 87.6289 94.5488C88.1803 94.291 88.8213 94.1621 89.5518 94.1621C90.2822 94.1621 90.9303 94.3053 91.4961 94.5918C92.0618 94.8711 92.5345 95.2721 92.9141 95.7949C93.3008 96.3177 93.5944 96.9443 93.7949 97.6748C93.9954 98.3981 94.0957 99.2038 94.0957 100.092ZM92.0977 100.317V100.092C92.0977 99.5117 92.0439 98.9674 91.9365 98.459C91.8291 97.9434 91.6572 97.4922 91.4209 97.1055C91.1846 96.7116 90.873 96.4036 90.4863 96.1816C90.0996 95.9525 89.6234 95.8379 89.0576 95.8379C88.5563 95.8379 88.1195 95.9238 87.7471 96.0957C87.3818 96.2676 87.0703 96.5003 86.8125 96.7939C86.5547 97.0804 86.3434 97.4098 86.1787 97.7822C86.0212 98.1475 85.903 98.527 85.8242 98.9209V101.51C85.9388 102.011 86.125 102.494 86.3828 102.96C86.6478 103.418 86.9987 103.794 87.4355 104.088C87.8796 104.382 88.4274 104.528 89.0791 104.528C89.6162 104.528 90.0745 104.421 90.4541 104.206C90.8408 103.984 91.1523 103.68 91.3887 103.293C91.6322 102.906 91.8112 102.459 91.9258 101.95C92.0404 101.442 92.0977 100.897 92.0977 100.317ZM101.433 106.215C100.623 106.215 99.8893 106.079 99.2305 105.807C98.5788 105.527 98.0166 105.137 97.5439 104.636C97.0785 104.134 96.7204 103.54 96.4697 102.853C96.2191 102.165 96.0938 101.413 96.0938 100.597V100.146C96.0938 99.2002 96.2334 98.3587 96.5127 97.6211C96.792 96.8763 97.1715 96.2461 97.6514 95.7305C98.1312 95.2148 98.6755 94.8245 99.2842 94.5596C99.8929 94.2946 100.523 94.1621 101.175 94.1621C102.006 94.1621 102.722 94.3053 103.323 94.5918C103.932 94.8783 104.43 95.2793 104.816 95.7949C105.203 96.3034 105.49 96.9049 105.676 97.5996C105.862 98.2871 105.955 99.0391 105.955 99.8555V100.747H97.2754V99.125H103.968V98.9746C103.939 98.459 103.832 97.9577 103.646 97.4707C103.466 96.9837 103.18 96.5827 102.786 96.2676C102.392 95.9525 101.855 95.7949 101.175 95.7949C100.724 95.7949 100.308 95.8916 99.9287 96.085C99.5492 96.2712 99.2233 96.5505 98.9512 96.9229C98.679 97.2952 98.4678 97.75 98.3174 98.2871C98.167 98.8242 98.0918 99.4437 98.0918 100.146V100.597C98.0918 101.148 98.167 101.667 98.3174 102.154C98.4749 102.634 98.7005 103.057 98.9941 103.422C99.2949 103.787 99.6566 104.074 100.079 104.281C100.509 104.489 100.996 104.593 101.54 104.593C102.242 104.593 102.836 104.45 103.323 104.163C103.81 103.877 104.236 103.493 104.602 103.014L105.805 103.97C105.554 104.349 105.235 104.711 104.849 105.055C104.462 105.398 103.986 105.678 103.42 105.893C102.861 106.107 102.199 106.215 101.433 106.215ZM110.263 96.2031V106H108.275V94.377H110.209L110.263 96.2031ZM113.894 94.3125L113.883 96.1602C113.718 96.1243 113.561 96.1029 113.41 96.0957C113.267 96.0814 113.102 96.0742 112.916 96.0742C112.458 96.0742 112.053 96.1458 111.702 96.2891C111.351 96.4323 111.054 96.6328 110.811 96.8906C110.567 97.1484 110.374 97.4564 110.23 97.8145C110.094 98.1654 110.005 98.5521 109.962 98.9746L109.403 99.2969C109.403 98.5951 109.471 97.9362 109.607 97.3203C109.751 96.7044 109.969 96.1602 110.263 95.6875C110.556 95.2077 110.929 94.8353 111.38 94.5703C111.838 94.2982 112.382 94.1621 113.013 94.1621C113.156 94.1621 113.321 94.18 113.507 94.2158C113.693 94.2445 113.822 94.2767 113.894 94.3125ZM114.431 90.0693L114.85 88.8447C115.831 89.1169 116.597 89.5036 117.148 90.0049C117.707 90.499 118.101 91.0755 118.33 91.7344C118.559 92.3861 118.674 93.0879 118.674 93.8398V96.0635C118.674 96.5791 118.753 97.0303 118.91 97.417C119.068 97.7965 119.311 98.0902 119.641 98.2979C119.977 98.5055 120.414 98.6094 120.951 98.6094V99.8232C119.941 99.8232 119.121 99.6621 118.491 99.3398C117.861 99.0104 117.399 98.5628 117.105 97.9971C116.819 97.4242 116.676 96.7796 116.676 96.0635V93.8398C116.676 93.2526 116.608 92.7083 116.472 92.207C116.336 91.6986 116.103 91.2617 115.773 90.8965C115.451 90.5241 115.004 90.2484 114.431 90.0693ZM114.85 109.932L114.431 108.696C114.996 108.517 115.44 108.242 115.763 107.869C116.092 107.504 116.325 107.071 116.461 106.569C116.604 106.068 116.676 105.524 116.676 104.937V102.724C116.676 102 116.819 101.356 117.105 100.79C117.399 100.224 117.861 99.7803 118.491 99.458C119.121 99.1286 119.941 98.9639 120.951 98.9639V100.167C120.149 100.167 119.569 100.4 119.211 100.865C118.853 101.324 118.674 101.943 118.674 102.724V104.937C118.674 105.688 118.559 106.39 118.33 107.042C118.101 107.701 117.707 108.277 117.148 108.771C116.597 109.266 115.831 109.652 114.85 109.932ZM129.599 90.3594H131.607L136.731 103.11L141.845 90.3594H143.864L137.505 106H135.937L129.599 90.3594ZM128.943 90.3594H130.716L131.006 99.8984V106H128.943V90.3594ZM142.736 90.3594H144.509V106H142.446V99.8984L142.736 90.3594ZM147.323 100.317V100.07C147.323 99.2324 147.445 98.4554 147.688 97.7393C147.932 97.016 148.283 96.3893 148.741 95.8594C149.2 95.3223 149.755 94.9069 150.406 94.6133C151.058 94.3125 151.788 94.1621 152.598 94.1621C153.414 94.1621 154.148 94.3125 154.8 94.6133C155.459 94.9069 156.017 95.3223 156.476 95.8594C156.941 96.3893 157.296 97.016 157.539 97.7393C157.783 98.4554 157.904 99.2324 157.904 100.07V100.317C157.904 101.155 157.783 101.932 157.539 102.648C157.296 103.365 156.941 103.991 156.476 104.528C156.017 105.058 155.462 105.474 154.811 105.774C154.166 106.068 153.436 106.215 152.619 106.215C151.803 106.215 151.069 106.068 150.417 105.774C149.765 105.474 149.207 105.058 148.741 104.528C148.283 103.991 147.932 103.365 147.688 102.648C147.445 101.932 147.323 101.155 147.323 100.317ZM149.311 100.07V100.317C149.311 100.897 149.379 101.445 149.515 101.961C149.651 102.469 149.855 102.921 150.127 103.314C150.406 103.708 150.754 104.02 151.169 104.249C151.584 104.471 152.068 104.582 152.619 104.582C153.163 104.582 153.64 104.471 154.048 104.249C154.463 104.02 154.807 103.708 155.079 103.314C155.351 102.921 155.555 102.469 155.691 101.961C155.835 101.445 155.906 100.897 155.906 100.317V100.07C155.906 99.4974 155.835 98.9567 155.691 98.4482C155.555 97.9326 155.348 97.4779 155.068 97.084C154.796 96.6829 154.452 96.3678 154.037 96.1387C153.629 95.9095 153.149 95.7949 152.598 95.7949C152.053 95.7949 151.574 95.9095 151.158 96.1387C150.75 96.3678 150.406 96.6829 150.127 97.084C149.855 97.4779 149.651 97.9326 149.515 98.4482C149.379 98.9567 149.311 99.4974 149.311 100.07ZM162.384 96.2031V106H160.396V94.377H162.33L162.384 96.2031ZM166.015 94.3125L166.004 96.1602C165.839 96.1243 165.682 96.1029 165.531 96.0957C165.388 96.0814 165.223 96.0742 165.037 96.0742C164.579 96.0742 164.174 96.1458 163.823 96.2891C163.472 96.4323 163.175 96.6328 162.932 96.8906C162.688 97.1484 162.495 97.4564 162.352 97.8145C162.215 98.1654 162.126 98.5521 162.083 98.9746L161.524 99.2969C161.524 98.5951 161.592 97.9362 161.729 97.3203C161.872 96.7044 162.09 96.1602 162.384 95.6875C162.677 95.2077 163.05 94.8353 163.501 94.5703C163.959 94.2982 164.504 94.1621 165.134 94.1621C165.277 94.1621 165.442 94.18 165.628 94.2158C165.814 94.2445 165.943 94.2767 166.015 94.3125ZM172.46 106.215C171.651 106.215 170.917 106.079 170.258 105.807C169.606 105.527 169.044 105.137 168.571 104.636C168.106 104.134 167.748 103.54 167.497 102.853C167.246 102.165 167.121 101.413 167.121 100.597V100.146C167.121 99.2002 167.261 98.3587 167.54 97.6211C167.819 96.8763 168.199 96.2461 168.679 95.7305C169.159 95.2148 169.703 94.8245 170.312 94.5596C170.92 94.2946 171.55 94.1621 172.202 94.1621C173.033 94.1621 173.749 94.3053 174.351 94.5918C174.959 94.8783 175.457 95.2793 175.844 95.7949C176.23 96.3034 176.517 96.9049 176.703 97.5996C176.889 98.2871 176.982 99.0391 176.982 99.8555V100.747H168.303V99.125H174.995V98.9746C174.966 98.459 174.859 97.9577 174.673 97.4707C174.494 96.9837 174.207 96.5827 173.813 96.2676C173.42 95.9525 172.882 95.7949 172.202 95.7949C171.751 95.7949 171.336 95.8916 170.956 96.085C170.576 96.2712 170.251 96.5505 169.979 96.9229C169.706 97.2952 169.495 97.75 169.345 98.2871C169.194 98.8242 169.119 99.4437 169.119 100.146V100.597C169.119 101.148 169.194 101.667 169.345 102.154C169.502 102.634 169.728 103.057 170.021 103.422C170.322 103.787 170.684 104.074 171.106 104.281C171.536 104.489 172.023 104.593 172.567 104.593C173.269 104.593 173.864 104.45 174.351 104.163C174.838 103.877 175.264 103.493 175.629 103.014L176.832 103.97C176.581 104.349 176.263 104.711 175.876 105.055C175.489 105.398 175.013 105.678 174.447 105.893C173.889 106.107 173.226 106.215 172.46 106.215Z" fill="black"/>
</svg>
