<svg width="24" height="24" viewBox="0 0 24 24" fill="none" xmlns="http://www.w3.org/2000/svg">
<path d="M15.6 8L8 8C7.71667 8 7.479 7.904 7.287 7.712C7.095 7.52 6.99933 7.28267 7 7C7.00067 6.71733 7.09667 6.48 7.288 6.288C7.47933 6.096 7.71667 6 8 6L18 6C18.2833 6 18.5207 6.096 18.712 6.288C18.9033 6.48 18.9993 6.71733 19 7L19 17C19 17.2833 18.904 17.521 18.712 17.713C18.52 17.905 18.2827 18.0007 18 18C17.7173 17.9993 17.4797 17.9033 17.287 17.712C17.0943 17.5207 16.9987 17.2833 17 17L17 9.4L8.1 18.3C7.91667 18.4833 7.68333 18.575 7.4 18.575C7.11667 18.575 6.88333 18.4833 6.7 18.3C6.51667 18.1167 6.425 17.8833 6.425 17.6C6.425 17.3167 6.51667 17.0833 6.7 16.9L15.6 8Z" fill="white"/>
</svg>
