<svg width="39" height="39" viewBox="0 0 39 39" fill="none" xmlns="http://www.w3.org/2000/svg">
<path id="Vector" fill-rule="evenodd" clip-rule="evenodd" d="M29.633 10.7308H32.944C33.8038 10.7307 34.6519 10.9608 35.4215 11.4032C36.1912 11.8455 36.8613 12.488 37.3792 13.28C37.8971 14.0719 38.2486 14.9918 38.4061 15.9672C38.5635 16.9425 38.5226 17.9467 38.2866 18.9008L35.0086 32.1423C34.5544 33.9744 33.5955 35.5859 32.2768 36.733C30.9581 37.8801 29.3515 38.5004 27.7001 38.5H11.2999C9.64813 38.5002 8.04128 37.8795 6.72258 36.7319C5.40388 35.5842 4.44512 33.972 3.99144 32.1394L0.713416 18.9008C0.477386 17.9467 0.43649 16.9425 0.593947 15.9672C0.751405 14.9918 1.10292 14.0719 1.62081 13.28C2.13871 12.488 2.80885 11.8455 3.57848 11.4032C4.34811 10.9608 5.19622 10.7307 6.05604 10.7308H9.367V6.34615C9.367 4.79566 9.90079 3.30867 10.8509 2.2123C11.8011 1.11593 13.0898 0.5 14.4335 0.5H24.5665C25.9102 0.5 27.1989 1.11593 28.1491 2.2123C29.0992 3.30867 29.633 4.79566 29.633 6.34615V10.7308ZM13.1669 10.7308V6.34615C13.1669 5.95853 13.3003 5.58678 13.5379 5.31269C13.7754 5.0386 14.0976 4.88462 14.4335 4.88462H24.5665C24.9024 4.88462 25.2246 5.0386 25.4621 5.31269C25.6997 5.58678 25.8331 5.95853 25.8331 6.34615V10.7308H13.1669ZM27.7001 34.1154H11.2999C10.4742 34.1152 9.67108 33.8047 9.01199 33.2309C8.35289 32.6571 7.8737 31.8511 7.64692 30.9351L4.3689 17.6965C4.29445 17.3951 4.28159 17.078 4.33134 16.77C4.38109 16.4619 4.49208 16.1714 4.6556 15.9213C4.81911 15.6711 5.03069 15.4681 5.27369 15.3283C5.51669 15.1885 5.7845 15.1156 6.05604 15.1154H32.944C33.2155 15.1156 33.4833 15.1885 33.7263 15.3283C33.9693 15.4681 34.1809 15.6711 34.3444 15.9213C34.5079 16.1714 34.6189 16.4619 34.6687 16.77C34.7184 17.078 34.7056 17.3951 34.6311 17.6965L31.3531 30.938C31.1258 31.8535 30.6465 32.6588 29.9874 33.232C29.3283 33.8053 28.5255 34.1154 27.7001 34.1154ZM16.0725 30.4177C15.5787 30.5313 15.0661 30.4141 14.6471 30.0918C14.2282 29.7695 13.9372 29.2686 13.8382 28.6989L12.5716 21.3912C12.4916 20.8304 12.6036 20.2556 12.8838 19.7882C13.1641 19.3208 13.5907 18.9972 14.0737 18.8858C14.5567 18.7743 15.0584 18.8836 15.4729 19.1907C15.8873 19.4978 16.1823 19.9787 16.2954 20.5318L17.5621 27.8395C17.6605 28.4093 17.5589 29.0009 17.2796 29.4843C17.0003 29.9677 16.5662 30.3034 16.0725 30.4177ZM26.4284 21.3912C26.487 21.1049 26.4951 20.8078 26.452 20.5178C26.409 20.2277 26.3158 19.9507 26.1781 19.7031C26.0403 19.4555 25.8607 19.2424 25.6501 19.0766C25.4394 18.9107 25.202 18.7955 24.9519 18.7378C24.7019 18.6801 24.4443 18.6811 24.1946 18.7407C23.9449 18.8003 23.7081 18.9172 23.4984 19.0847C23.2887 19.2521 23.1103 19.4665 22.9739 19.7151C22.8375 19.9637 22.7459 20.2415 22.7046 20.5318L21.4379 27.8395C21.3794 28.1259 21.3713 28.423 21.4143 28.713C21.4574 29.003 21.5505 29.2801 21.6883 29.5277C21.8261 29.7753 22.0057 29.9884 22.2163 30.1542C22.427 30.32 22.6644 30.4352 22.9144 30.4929C23.1645 30.5506 23.4221 30.5497 23.6718 30.4901C23.9215 30.4305 24.1583 30.3135 24.368 30.1461C24.5777 29.9787 24.7561 29.7643 24.8924 29.5157C25.0288 29.267 25.1204 28.9893 25.1618 28.6989L26.4284 21.3912Z" fill="black"/>
</svg>
