<svg width="60" height="60" viewBox="0 0 60 60" fill="none" xmlns="http://www.w3.org/2000/svg">
<rect width="58" height="58" rx="20" fill="#DCC1FF"/>
<path d="M27.8475 35.145C26.7525 35.145 26.115 34.41 26.115 32.5V25.76L29.755 26.04L29.94 24.305L26.2 24.49V20.665H25.105C24.565 23.6675 23.2075 24.76 21.385 24.945V25.855H23.5575V33.51C23.5575 35.6 25.0275 36.6875 26.84 36.6875C28.3025 36.6875 29.845 36.05 30.385 34.78L29.8425 34.1425C29.5725 34.5925 28.8375 35.145 27.8475 35.145ZM19.1125 33.1375C18.3775 34.8625 17.195 34.96 16.0125 34.96H12.1875C10.9175 34.96 10.365 34.495 10.365 33.41V27.765C10.365 27.765 13.095 27.765 14.0075 27.8625C14.735 27.95 15.1025 28.135 15.3725 29.045L15.6425 30.3225H16.7375L16.64 27.05L16.825 23.855H15.74L15.3725 25.3175C15.19 26.315 15.005 26.4125 14.0075 26.5875C12.7375 26.6825 10.365 26.6825 10.365 26.6825V19.9475C10.365 19.6675 10.365 19.58 10.8275 19.58H16.555C17.56 19.58 18.105 20.395 18.4625 22.03L18.83 23.31H19.8275C19.925 19.6675 20.0125 18.125 20.0125 18.125C20.0125 18.125 17.56 18.3875 16.1075 18.3875H8.825L5 18.31V19.3075L6.27 19.575C7.1875 19.76 7.4575 19.9425 7.4575 20.7575C7.4575 20.7575 7.555 23.2175 7.555 27.305C7.555 31.4025 7.4575 33.8625 7.4575 33.8625C7.4575 34.59 7.1875 34.86 6.27 35.045L5 35.3275V36.3175L8.9125 36.23H15.47C16.9225 36.23 20.3825 36.3175 20.3825 36.3175C20.4675 35.415 20.9225 31.4075 21.02 30.9525H20.1L19.1125 33.1375ZM34.2125 26.5825C34.2125 25.3975 35.305 24.945 36.4 24.945C37.3 24.945 38.0325 25.3125 38.2225 25.7575L38.86 27.58L39.7625 27.4925C39.7625 26.5825 39.8575 25.3975 40.04 24.49C39.22 24.1225 37.5825 23.9375 36.4875 23.9375C34.0275 23.9375 32.12 25.04 32.12 27.405C32.12 31.59 38.22 30.68 38.22 33.7775C38.22 34.775 37.58 35.6 36.03 35.6C34.5775 35.6 33.9375 34.865 33.6675 34.1375L32.9425 32.405H32.02C32.12 33.595 32.205 34.775 32.02 35.86C32.02 35.86 33.9375 36.595 35.8475 36.595C38.4025 36.595 40.4925 35.3275 40.4925 32.9525C40.4925 28.7675 34.2125 29.4 34.2125 26.5825ZM50.135 24.22V25.13L50.7825 25.315C51.4125 25.49 51.6825 25.76 51.6825 26.2225C51.6825 26.4925 51.5975 26.5825 51.5 26.95C51.23 27.6775 49.495 31.9575 48.595 33.8675C47.6334 31.4291 46.7224 28.9711 45.8625 26.495C45.775 26.3125 45.775 26.225 45.775 26.13C45.775 25.76 46.0375 25.4 46.6775 25.315L47.5 25.13V24.22L44.135 24.4025L41.395 24.305V25.225L41.8625 25.3975C42.49 25.5825 42.58 25.6725 43.035 26.6775C44.7675 30.5025 46.6775 35.5 47.325 37.0525C45.865 39.6 44.315 40.325 43.1325 40.325C42.405 40.325 42.135 39.9575 42.045 39.5025L41.68 37.595L40.68 37.6825C40.4975 38.875 40.3125 40.1425 40.0425 41.14C40.76 41.595 41.5825 41.875 42.675 41.8725C44.4025 41.8725 46.8625 41.4175 49.2325 36.0425L53.235 26.675C53.5975 25.9425 53.69 25.8525 54.6 25.485L55.0575 25.125V24.22L52.695 24.305L50.135 24.22Z" fill="black"/>
</svg>
