<svg width="25" height="24" viewBox="0 0 25 24" fill="none" xmlns="http://www.w3.org/2000/svg">
<path fill-rule="evenodd" clip-rule="evenodd" d="M7.49998 7.25002L12.5 14.75L17.5 7.25002C17.5656 7.15153 17.6501 7.06694 17.7484 7.00107C17.8468 6.9352 17.9571 6.88935 18.0732 6.86614C18.1893 6.84292 18.3088 6.8428 18.4249 6.86577C18.541 6.88874 18.6515 6.93436 18.75 7.00002C18.9489 7.13263 19.087 7.33882 19.1339 7.57324C19.1571 7.68932 19.1572 7.80883 19.1342 7.92495C19.1113 8.04107 19.0656 8.15153 19 8.25002L13.332 16.752C13.2407 16.889 13.1169 17.0013 12.9718 17.0789C12.8267 17.1566 12.6646 17.1972 12.5 17.1972C12.3354 17.1972 12.1733 17.1566 12.0282 17.0789C11.883 17.0013 11.7593 16.889 11.668 16.752L5.99998 8.25002C5.93432 8.15153 5.8887 8.04107 5.86573 7.92495C5.84276 7.80883 5.84288 7.68932 5.86609 7.57324C5.88931 7.45717 5.93516 7.34681 6.00103 7.24845C6.06689 7.1501 6.15149 7.06568 6.24998 7.00002C6.34847 6.93436 6.45893 6.88874 6.57505 6.86577C6.69117 6.8428 6.81068 6.84292 6.92676 6.86614C7.04283 6.88935 7.15319 6.9352 7.25155 7.00107C7.3499 7.06693 7.43432 7.15153 7.49998 7.25002Z" fill="black"/>
</svg>
