<svg width="60" height="60" viewBox="0 0 60 60" fill="none" xmlns="http://www.w3.org/2000/svg">
<rect x="1" width="58" height="58" rx="20" fill="#DCC1FF"/>
<path d="M30 19.7501C27.9727 19.7501 25.991 20.3513 24.3054 21.4775C22.6198 22.6038 21.306 24.2046 20.5302 26.0776C19.7544 27.9505 19.5514 30.0115 19.9469 31.9998C20.3424 33.9881 21.3186 35.8145 22.7521 37.2479C24.1856 38.6814 26.012 39.6576 28.0003 40.0531C29.9886 40.4486 32.0495 40.2457 33.9225 39.4699C35.7954 38.6941 37.3963 37.3803 38.5225 35.6947C39.6488 34.0091 40.25 32.0274 40.25 30.0001C40.2533 28.6531 39.9904 27.3188 39.4765 26.0737C38.9625 24.8286 38.2076 23.6974 37.2552 22.7449C36.3027 21.7924 35.1715 21.0376 33.9264 20.5236C32.6813 20.0097 31.347 19.7468 30 19.7501ZM30 36.6751C28.6798 36.6751 27.3892 36.2836 26.2915 35.5502C25.1938 34.8167 24.3383 33.7742 23.8331 32.5545C23.3279 31.3348 23.1957 29.9927 23.4532 28.6979C23.7108 27.403 24.3465 26.2137 25.28 25.2802C26.2136 24.3466 27.4029 23.7109 28.6977 23.4534C29.9926 23.1958 31.3347 23.328 32.5544 23.8332C33.7741 24.3384 34.8166 25.194 35.55 26.2917C36.2835 27.3894 36.675 28.6799 36.675 30.0001C36.675 31.7704 35.9717 33.4682 34.7199 34.72C33.4681 35.9718 31.7703 36.6751 30 36.6751ZM43.075 19.3251C43.075 19.8196 42.9284 20.3029 42.6536 20.714C42.3789 21.1251 41.9885 21.4456 41.5317 21.6348C41.0749 21.824 40.5722 21.8735 40.0872 21.7771C39.6023 21.6806 39.1568 21.4425 38.8072 21.0929C38.4576 20.7432 38.2195 20.2978 38.123 19.8128C38.0266 19.3279 38.0761 18.8252 38.2653 18.3684C38.4545 17.9116 38.7749 17.5211 39.1861 17.2464C39.5972 16.9717 40.0805 16.8251 40.575 16.8251C41.238 16.8251 41.8739 17.0885 42.3427 17.5573C42.8116 18.0262 43.075 18.6621 43.075 19.3251ZM49.85 21.8251C49.9254 18.7167 48.7657 15.7051 46.625 13.4501C45.5144 12.3766 44.2031 11.5325 42.766 10.9663C41.329 10.4 39.7943 10.1227 38.25 10.1501C35 10.0001 25 10.0001 21.75 10.1501C18.643 10.0828 15.6344 11.2414 13.375 13.3751C11.2342 15.6301 10.0745 18.6417 10.15 21.7501C9.99998 25.0001 9.99998 35.0001 10.15 38.2501C10.0745 41.3585 11.2342 44.3701 13.375 46.6251C15.6344 48.7588 18.643 49.9174 21.75 49.8501C25.05 50.0501 34.95 50.0501 38.25 49.8501C41.3584 49.9256 44.37 48.7659 46.625 46.6251C48.7657 44.3701 49.9254 41.3585 49.85 38.2501C50 35.0001 50 25.0001 49.85 21.7501V21.8251ZM45.6 41.8251C45.2605 42.6849 44.7481 43.4659 44.0944 44.1196C43.4408 44.7732 42.6598 45.2857 41.8 45.6251C37.919 46.4097 33.9514 46.6787 30 46.4251C26.0569 46.6765 22.0978 46.4075 18.225 45.6251C17.3651 45.2857 16.5842 44.7732 15.9305 44.1196C15.2768 43.4659 14.7644 42.6849 14.425 41.8251C13.375 39.1751 13.6 32.9251 13.6 30.0251C13.6 27.1251 13.375 20.8501 14.425 18.2251C14.7548 17.3568 15.2636 16.5675 15.9183 15.9085C16.5729 15.2496 17.3588 14.7356 18.225 14.4001C22.0978 13.6177 26.0569 13.3487 30 13.6001C33.9514 13.3465 37.919 13.6155 41.8 14.4001C42.6598 14.7395 43.4408 15.252 44.0944 15.9056C44.7481 16.5593 45.2605 17.3403 45.6 18.2001C46.65 20.8501 46.4 27.1001 46.4 30.0001C46.4 32.9001 46.65 39.1751 45.6 41.8001V41.8251Z" fill="black"/>
</svg>
