<svg width="35" height="35" viewBox="0 0 35 35" fill="none" xmlns="http://www.w3.org/2000/svg">
<rect width="35" height="35" rx="17.5" fill="#DCC1FF"/>
<path d="M26 17.5002C26 15.6196 25.411 13.7863 24.3157 12.2578C23.2203 10.7292 21.6736 9.58208 19.8929 8.97762C18.1122 8.37315 16.1868 8.34166 14.3873 8.88758C12.5878 9.43349 11.0044 10.5294 9.85967 12.0213C8.71492 13.5133 8.06627 15.3264 8.00481 17.2059C7.94335 19.0854 8.47218 20.937 9.51702 22.5005C10.5619 24.0641 12.0702 25.261 13.8303 25.9233C15.5903 26.5857 17.5136 26.68 19.33 26.1932" stroke="black" stroke-width="2" stroke-linecap="round"/>
<path d="M17 21.5002C19.2091 21.5002 21 19.7094 21 17.5002C21 15.2911 19.2091 13.5002 17 13.5002C14.7909 13.5002 13 15.2911 13 17.5002C13 19.7094 14.7909 21.5002 17 21.5002Z" stroke="black" stroke-width="2"/>
<path d="M21 14.5002V19.0002C21 19.6633 21.2634 20.2992 21.7322 20.768C22.2011 21.2369 22.837 21.5002 23.5 21.5002C24.163 21.5002 24.7989 21.2369 25.2678 20.768C25.7366 20.2992 26 19.6633 26 19.0002V17.5002" stroke="black" stroke-width="2" stroke-linecap="round"/>
</svg>
