<svg width="20" height="18" viewBox="0 0 20 18" fill="none" xmlns="http://www.w3.org/2000/svg">
<path d="M5.80012 15.4333L10.0001 12.9L14.2001 15.4667L13.1001 10.6667L16.8001 7.46667L11.9334 7.03334L10.0001 2.50001L8.06678 7.00001L3.20011 7.43334L6.90012 10.6667L5.80012 15.4333ZM10.0001 14.4693L5.16011 17.392C5.01789 17.4622 4.88589 17.4907 4.76411 17.4773C4.64323 17.4631 4.52545 17.4213 4.41078 17.352C4.29523 17.2809 4.20811 17.1805 4.14945 17.0507C4.09078 16.9209 4.08545 16.7791 4.13345 16.6253L5.42145 11.1453L1.16145 7.45201C1.04145 7.35423 0.962336 7.23734 0.924114 7.10134C0.885892 6.96534 0.894336 6.83512 0.949448 6.71067C1.00456 6.58623 1.07789 6.48401 1.16945 6.40401C1.26189 6.32667 1.38634 6.27423 1.54278 6.24668L7.16411 5.75601L9.35612 0.566675C9.41656 0.420009 9.50367 0.31423 9.61745 0.249341C9.73123 0.184452 9.85878 0.152008 10.0001 0.152008C10.1414 0.152008 10.2694 0.184452 10.3841 0.249341C10.4988 0.31423 10.5854 0.420009 10.6441 0.566675L12.8361 5.75601L18.4561 6.24668C18.6134 6.27334 18.7383 6.32623 18.8308 6.40534C18.9232 6.48356 18.997 6.58534 19.0521 6.71067C19.1063 6.83512 19.1143 6.96534 19.0761 7.10134C19.0379 7.23734 18.9588 7.35423 18.8388 7.45201L14.5788 11.1453L15.8668 16.6253C15.9166 16.7773 15.9117 16.9187 15.8521 17.0493C15.7926 17.18 15.705 17.2805 15.5894 17.3507C15.4757 17.4218 15.3579 17.464 15.2361 17.4773C15.1152 17.4907 14.9837 17.4622 14.8414 17.392L10.0001 14.4693Z" fill="#8B8B8B"/>
</svg>
