<svg width="58" height="58" viewBox="0 0 58 58" fill="none" xmlns="http://www.w3.org/2000/svg">
<rect width="58" height="58" rx="20" fill="#DCC1FF"/>
<path fill-rule="evenodd" clip-rule="evenodd" d="M32.6667 12.5C33.1529 12.5 33.6192 12.6932 33.9631 13.037C34.3069 13.3808 34.5 13.8471 34.5 14.3333C34.5011 16.0235 35.0853 17.6616 36.1542 18.9709C37.223 20.2802 38.7109 21.1806 40.3667 21.52C40.8432 21.6172 41.2616 21.8998 41.5297 22.3055C41.7979 22.7112 41.8939 23.2068 41.7967 23.6833C41.6994 24.1598 41.4169 24.5782 41.0112 24.8464C40.6055 25.1146 40.1099 25.2106 39.6334 25.1133C37.7234 24.7218 35.9518 23.8297 34.5 22.5283V38.1667C34.5 39.9797 33.9624 41.7519 32.9552 43.2594C31.9479 44.7668 30.5163 45.9418 28.8413 46.6356C27.1663 47.3294 25.3232 47.5109 23.545 47.1572C21.7669 46.8035 20.1335 45.9305 18.8515 44.6485C17.5696 43.3665 16.6965 41.7332 16.3428 39.955C15.9891 38.1768 16.1707 36.3337 16.8645 34.6587C17.5583 32.9837 18.7332 31.5521 20.2406 30.5449C21.7481 29.5376 23.5204 29 25.3334 29C25.8196 29 26.2859 29.1932 26.6297 29.537C26.9735 29.8808 27.1667 30.3471 27.1667 30.8333C27.1667 31.3196 26.9735 31.7859 26.6297 32.1297C26.2859 32.4735 25.8196 32.6667 25.3334 32.6667C24.2456 32.6667 23.1822 32.9892 22.2777 33.5936C21.3733 34.1979 20.6683 35.0569 20.252 36.0619C19.8357 37.0669 19.7268 38.1728 19.939 39.2397C20.1513 40.3066 20.6751 41.2866 21.4443 42.0558C22.2135 42.8249 23.1935 43.3488 24.2604 43.561C25.3273 43.7732 26.4331 43.6643 27.4381 43.248C28.4431 42.8317 29.3021 42.1268 29.9064 41.2223C30.5108 40.3178 30.8334 39.2545 30.8334 38.1667V14.3333C30.8334 13.8471 31.0265 13.3808 31.3703 13.037C31.7141 12.6932 32.1805 12.5 32.6667 12.5Z" fill="black"/>
</svg>
