<svg width="50" height="50" viewBox="0 0 50 50" fill="none" xmlns="http://www.w3.org/2000/svg">
<circle cx="25" cy="25" r="25" fill="#F0F0F0"/>
<path d="M35.3077 39.6154C35.3077 38.2365 35.0361 36.8711 34.5085 35.5972C33.9808 34.3233 33.2074 33.1658 32.2324 32.1907C31.2573 31.2157 30.0998 30.4423 28.8259 29.9146C27.552 29.3869 26.1866 29.1154 24.8077 29.1154C23.4289 29.1154 22.0635 29.3869 20.7896 29.9146C19.5156 30.4423 18.3581 31.2157 17.3831 32.1907C16.4081 33.1658 15.6347 34.3233 15.107 35.5972C14.5793 36.8711 14.3077 38.2365 14.3077 39.6154M24.8077 24.6154C23.2164 24.6154 21.6903 23.9832 20.5651 22.858C19.4399 21.7328 18.8077 20.2067 18.8077 18.6154C18.8077 17.0241 19.4399 15.4979 20.5651 14.3727C21.6903 13.2475 23.2164 12.6154 24.8077 12.6154C26.399 12.6154 27.9252 13.2475 29.0504 14.3727C30.1756 15.4979 30.8077 17.0241 30.8077 18.6154C30.8077 20.2067 30.1756 21.7328 29.0504 22.858C27.9252 23.9832 26.399 24.6154 24.8077 24.6154Z" stroke="#8B8B8B" stroke-width="2" stroke-linecap="round" stroke-linejoin="round"/>
</svg>
